<svg xmlns="http://www.w3.org/2000/svg" xmlns:xlink="http://www.w3.org/1999/xlink" width="365.378" height="439.172" viewBox="0 0 96.673 116.198"><path d="M-1257.226 19133.151s169.77-69.926 169.77-247.637v-160.965h-339.541v160.965c0 177.711 169.77 247.637 169.77 247.637z" style="display:inline;opacity:1;fill:#222b2c;fill-opacity:1;fill-rule:evenodd;stroke:none;stroke-width:2.99999976;stroke-linecap:butt;stroke-linejoin:miter;stroke-miterlimit:4;stroke-dasharray:none;stroke-opacity:1" transform="translate(403.154 -5284.06) scale(.28222)"/><path d="M-1257.226 18724.549h-169.771v153.076h169.77" style="display:inline;opacity:1;fill:#e64151;fill-opacity:1;fill-rule:evenodd;stroke:none;stroke-width:2.99999976;stroke-linecap:butt;stroke-linejoin:miter;stroke-miterlimit:4;stroke-dasharray:none;stroke-opacity:1" transform="translate(403.154 -5284.06) scale(.28222)"/><path d="M-1257.226 18877.625h169.77v-153.076h-169.77" style="display:inline;opacity:1;fill:#1f9f5c;fill-opacity:1;fill-rule:evenodd;stroke:none;stroke-width:2.99999976;stroke-linecap:butt;stroke-linejoin:miter;stroke-miterlimit:4;stroke-dasharray:none;stroke-opacity:1" transform="translate(403.154 -5284.06) scale(.28222)"/><path d="M-1257.226 18724.549v153.076" style="fill:none;fill-rule:evenodd;stroke:#000;stroke-width:1.40625;stroke-linecap:butt;stroke-linejoin:miter;stroke-miterlimit:4;stroke-dasharray:none;stroke-opacity:1" transform="translate(403.154 -5284.06) scale(.28222)"/><g transform="translate(1677.309 -9126.071) scale(.48231)"><path style="color:#000;font-style:normal;font-variant:normal;font-weight:400;font-stretch:normal;font-size:medium;line-height:normal;font-family:sans-serif;font-variant-ligatures:normal;font-variant-position:normal;font-variant-caps:normal;font-variant-numeric:normal;font-variant-alternates:normal;font-feature-settings:normal;text-indent:0;text-align:start;text-decoration:none;text-decoration-line:none;text-decoration-style:solid;text-decoration-color:#000;letter-spacing:normal;word-spacing:normal;text-transform:none;writing-mode:lr-tb;direction:ltr;text-orientation:mixed;dominant-baseline:auto;baseline-shift:baseline;text-anchor:start;white-space:normal;shape-padding:0;clip-rule:nonzero;display:inline;overflow:visible;visibility:visible;opacity:1;isolation:auto;mix-blend-mode:normal;color-interpolation:sRGB;color-interpolation-filters:linearRGB;solid-color:#000;solid-opacity:1;vector-effect:none;fill:#ead452;fill-opacity:1;fill-rule:evenodd;stroke:#000;stroke-width:.67408562;stroke-linecap:butt;stroke-linejoin:miter;stroke-miterlimit:4;stroke-dasharray:none;stroke-dashoffset:0;stroke-opacity:1;color-rendering:auto;image-rendering:auto;shape-rendering:auto;text-rendering:auto;enable-background:accumulate" d="M-3229.328 19677.362c3.612 1.448 4.533 4.331 6.8 6.496 2.316 2.213 6.644 2.273 9.48.311.758-.837 3.067-3.95 3.031-1.059-1.174 8.824 9.148 9.95 12.777 4.551-.767 2.159-.248 4.033 1.004 5.531.305-.465.29-.712.594-1.178 1.39 1.921 3.465 1.53 5.406 1.821-1.937-1.949-.787-3.465-4.424-5.975-.555-.384.145-1.47.813-.824 1.692 1.636 4.207 2.467 6.9 1.814l-.794-.951c1.511-.161 2.67-.863 3.808-1.512-.344-.306-.865-.534-1.517-.697 1.366-.393 2.19-1.43 3.076-2.396-3.145-.129-6.105-1.318-9.239.558-.837.503-1.185-1.041-.113-1.121 2.145-.16 4.179-1.596 5.768-3.418-.497-.07-.994-.145-1.49-.215 1.321-1.122 2.214-2.499 2.492-4.263-.452.258-.908.478-1.358.258.241-1.916.22-3.456-.467-4.946-.221-.02-.44-.03-.656-.02v.01c-1.512.05-2.896.691-4.265 1.369a2.643 2.643 0 0 0-.024-1.264c-1.541.484-2.468 1.814-3.381 3.184-.236-.224-.468-.439-.703-.662-.76 2.306-.524 4.865-.062 6.746.185.753-1.454 1.205-1.41.04.129-3.389-1.588-6.324-3.196-9.164-1.44 1.314-1.938 2.88-1.926 4.576l-1.216-.666c.06 1.454.23 2.861 1.115 4.012-.29.179-.787.426-1.076.605 1.52 1.29 3.204 2.803 4.552 3.873.663.527.083 1.23-.664.703-1.832-1.288-4.181-1.53-6.27-1.5.447 2.074 1.624 3.367 3.43 3.99-.207.385-.409.774-.617 1.161 1.582.54 3.29.181 5.075-.278-6.204 5.368-11.89 1.099-9.176-4.704-.565-2.46-2.255-3.596-3.297-6.598-1.553-3.996-6.345-5.584-10.296-4.837-4.926.736-10.157 3.148-12.323 7.908-1.745-1.836-5.084-3.842-7.316-1.694-1.56 2.006-1.133 5.196-3.541 6.633-1.028 1.054-3.697 2.742-4.342 3.776-3.07 4.589-10.062.519-9.896-.196 1.784.459 3.494.82 5.076.28-.208-.387-.41-.775-.617-1.161 1.806-.622 2.983-1.916 3.43-3.99-2.089-.03-4.44.212-6.272 1.5-.747.527-1.325-.176-.662-.703 1.349-1.07 3.032-2.585 4.552-3.875-.289-.179-.787-.426-1.076-.605.884-1.151 1.053-2.558 1.113-4.012l-1.214.668c.012-1.696-.485-3.262-1.926-4.576-1.608 2.84-3.325 5.773-3.195 9.162.044 1.162-1.596.712-1.41-.04.46-1.881.694-4.442-.065-6.748-.235.223-.467.438-.703.662-.913-1.37-1.84-2.698-3.38-3.182a2.64 2.64 0 0 0-.022 1.264c-1.564-.775-3.149-1.508-4.921-1.35-.686 1.49-.71 3.03-.47 4.946-.45.22-.903 0-1.355-.258.278 1.764 1.169 3.139 2.49 4.261-.496.08-.993.147-1.49.217 1.589 1.822 3.625 3.256 5.77 3.416 1.072.08.724 1.626-.113 1.123-3.134-1.876-6.096-.687-9.24-.558.886.966 1.71 2.003 3.075 2.396-.652.163-1.171.391-1.515.698 1.139.648 2.297 1.35 3.808 1.511l-.795.949c2.694.653 5.209-.176 6.9-1.812.67-.646 1.367.44.811.824-3.637 2.51-2.484 4.026-4.422 5.975 1.942-.291 4.017.1 5.407-1.823.305.466.287.715.592 1.18 1.252-1.498 1.773-3.372 1.005-5.531 3.37 3.259 8.051 4.862 12.164.696 1.182-.538 3.353-3.075 4.924-3.524 2.577-1.3 1.998-4.696 3.856-6.404 2.65-.107 4.24 2.702 5.242 4.816 1.158 1.924 3.51 4.071 1.6 6.428-1.332 1.23-2.101 3.289-3.912 3.717-1.976-.272-3.711-2.593-5.811-.897-1.649.965-2.487 2.76-3.203 4.438-1.966 2.279-5.099.431-6.966-.772-12.824-5.689-14.504 6.604-11.7 10.182-2.055-1.199-3.74-1.842-5.617-2.063.166.592.783.849.949 1.44-2.589-.229-4.342 1.79-5.65 3.363 3.04-.244 3.172 1.338 7.572.754.744-.1 1.14.633.17.955-2.313.766-4.587 1.02-6.457 2.791.454.01.72.51 1.173.51-1.272 1-2.596 2.663-2.884 4.078.502-.06 1.06-.32 1.668-.744-.662 1.42-.174 4.653.238 6.146 1.653-2.485 5.856-3.596 7.2-8.955.261-1.043 1.563.01 1.25.777-1.002 2.417-2.841 5.057-2.706 7.487.418-.363.83-.741 1.248-1.102-.028 1.911.952 4.121 2.215 5.629.118-.558.252-1.099.76-1.312 1.413 1.586 2.907 2.578 4.638 3.087 1.413-1.357 2.05-2.998 2.537-4.859a2.92 2.92 0 0 0 1.065.897c1.249-1.582.338-3.861-.494-5.641.356-.03 1.221.337 1.578.307-.935-3.001-2.711-4.893-5.191-6.243-.753-.407-.319-1.62.69-.834 7.024 5.47 5.836 1.613 9.995 4.202-.834-2.22-.896-2.423-2.287-3.645.48-.177 1.306-.02 1.785-.207-.824-1.423-1.85-3.003-3.445-3.103.37-.28.686-.739 1.023-1.108-1.978-1.373-4.704-2.016-8.474-.859-.89.275-1.093-.773-.098-.918 3.94-.579 4.75-4.106 7.013-4.76-2.041-1.131-4.696-1.196-6.52-.145-.167-.453.17-.933 0-1.384-1.815.524-3.316 2.844-3.224 5.162-3.155-6.514 1.23-12.879 9.056-8 2.31 1.441 5.795 3.453 8.462 1.959 2.053-1.238 1.866-4.661 4.386-5.221 2.912-.296 4.265 3.163 6.977 3.608 1.426.985 3-1.452 3.96-.684.597 2.385-3.82 4.953-1.13 6.66 2.467-.122 2.513-3.531 3.467-5.266 1.03-2.108-.469-6.492-3.274-4.5-.869.933-3.672 1.973-2.851-.23 1.97-1.818 3.196-5.003 5.896-5.604 2.25-.583 3.98 1.908 2.078 3.487-1.532 2.556.539 5.558 3.153 6.215 4.795 1.11 14.214.843 17.838-.317 7.98-2.206 13.556 3.237 8.78 7.447.558-2.251-.445-4.827-2.118-5.707-.257.409-.024.947-.28 1.358-1.574-1.397-4.186-1.869-6.414-1.172 2.086 1.097 2.168 4.715 5.91 6.076.946.343.537 1.327-.279.879-3.46-1.892-6.26-1.811-8.474-.865.256.43.474.943.78 1.291-1.58-.227-2.907 1.12-4.001 2.348.431.278 1.27.293 1.707.56-1.609.917-1.708 1.105-2.973 3.111 4.595-1.699 2.654 1.84 10.635-2.103 1.147-.567 1.328.708.51.957-2.701.822-4.821 2.317-6.342 5.068.343.11 1.264-.09 1.605.02-1.173 1.576-2.523 3.626-1.619 5.428.401-.116.807-.29 1.223-.666.103 1.921.397 3.656 1.508 5.271 1.798-.151 3.46-.822 5.164-2.09.454.311.48.869.48 1.44 1.541-1.224 2.946-3.191 3.303-5.069.337.438.666.891 1.002 1.33.622-2.353-.649-5.31-1.143-7.879-.153-.81 1.334-1.585 1.381-.509.236 5.519 4.13 7.455 5.248 10.222.704-1.38 1.834-4.447 1.471-5.972.51.538 1.005.903 1.484 1.066 0-1.444-.958-3.342-2.003-4.578.444.1.805-.342 1.251-.262-1.474-2.111-3.652-2.819-5.763-4.035-.887-.511-.35-1.144.36-.9 4.192 1.458 4.64-.06 7.57.785-.966-1.805-2.277-4.134-4.858-4.432.281-.546.937-.673 1.219-1.221-1.884-.161-3.664.131-5.918.891 3.967-2.815 2.526-12.692-9.777-9.906-2.662.318-9.187.835-11.94.488-2.467.09-5.204.02-7.209-1.625-1.263-2.382 2.267-4.414.947-6.773-.944-1.499-2.724-2.053-4.42-1.912-2.508.438-4.3-1.368-5.15-3.557-1.546-1.91-.799-4.468.979-5.889 3.47-3.455 8.862-4.976 13.601-3.718 2.928 1.121 4.396 5.382 2.002 7.728-1.766 1.868-5.067 2.081-6.863.504-2.28-2.001-3.587-4.785-6.44-6.278m-2.644-1.308c-5.612-2.517-12.645-5.349-16.586-1.381-1.764 1.056-1.739 2.565-2.606 3.708l4.499.665c.04-1.579.5-1.806 1.547-2.85 4.1-1.626 5.961-.05 11.106 1.865" transform="translate(-300.244 485.757) scale(.9375)"/><g transform="matrix(1.00443 0 0 1.00463 -507.927 608.389)" style="stroke-width:.93327475;stroke-miterlimit:4;stroke-dasharray:none"><use height="100%" width="100%" transform="translate(-2.958 -3.702)" xlink:href="#a" style="stroke-width:.93327475;stroke-miterlimit:4;stroke-dasharray:none"/><use height="100%" width="100%" transform="translate(-.47 -30.615)" xlink:href="#a" style="stroke-width:.93327475;stroke-miterlimit:4;stroke-dasharray:none"/><use height="100%" width="100%" transform="translate(11.582 -30.228)" xlink:href="#a" style="stroke-width:.93327475;stroke-miterlimit:4;stroke-dasharray:none"/><use height="100%" width="100%" transform="translate(9.926 -25.531)" xlink:href="#a" style="stroke-width:.93327475;stroke-miterlimit:4;stroke-dasharray:none"/><use height="100%" width="100%" transform="translate(-10.608 -21.199)" xlink:href="#a" style="stroke-width:.93327475;stroke-miterlimit:4;stroke-dasharray:none"/><use height="100%" width="100%" transform="translate(-3.467 -20.732)" xlink:href="#a" style="stroke-width:.93327475;stroke-miterlimit:4;stroke-dasharray:none"/><use height="100%" width="100%" transform="translate(9.983 -14.437)" xlink:href="#a" style="stroke-width:.93327475;stroke-miterlimit:4;stroke-dasharray:none"/><use height="100%" width="100%" transform="translate(-5.219 -9.321)" xlink:href="#a" style="stroke-width:.93327475;stroke-miterlimit:4;stroke-dasharray:none"/><use height="100%" width="100%" transform="translate(2.76 -2.74)" xlink:href="#a" style="stroke-width:.93327475;stroke-miterlimit:4;stroke-dasharray:none"/><use height="100%" width="100%" transform="translate(6.577 -8.074)" xlink:href="#a" style="stroke-width:.93327475;stroke-miterlimit:4;stroke-dasharray:none"/><use height="100%" width="100%" transform="translate(-.655 -5.859)" xlink:href="#a" style="stroke-width:.93327475;stroke-miterlimit:4;stroke-dasharray:none"/><path style="display:inline;overflow:visible;visibility:visible;opacity:1;fill:#ead452;fill-opacity:1;fill-rule:evenodd;stroke:#000;stroke-width:.62910712;stroke-linecap:butt;stroke-linejoin:miter;stroke-miterlimit:4;stroke-dasharray:none;stroke-dashoffset:0;stroke-opacity:1;marker:none;marker-start:none;marker-mid:none;marker-end:none;enable-background:accumulate" id="a" d="M-2811.544 18298.201a3.887 3.886 88.24 1 0 7.77-.24 3.887 3.886 88.24 1 0-7.77.24z"/><use height="100%" width="100%" transform="translate(-1.454 -13.326)" xlink:href="#a" style="stroke-width:.93327475;stroke-miterlimit:4;stroke-dasharray:none"/><use height="100%" width="100%" transform="translate(-7.565 -14.75)" xlink:href="#a" style="stroke-width:.93327475;stroke-miterlimit:4;stroke-dasharray:none"/><use height="100%" width="100%" transform="translate(6.454 -18.217)" xlink:href="#a" style="stroke-width:.93327475;stroke-miterlimit:4;stroke-dasharray:none"/><use height="100%" width="100%" transform="translate(12.236 -21.335)" xlink:href="#a" style="stroke-width:.93327475;stroke-miterlimit:4;stroke-dasharray:none"/><use height="100%" width="100%" transform="translate(.957 -18.142)" xlink:href="#a" style="stroke-width:.93327475;stroke-miterlimit:4;stroke-dasharray:none"/><use height="100%" width="100%" transform="translate(4.196 -11.509)" xlink:href="#a" style="stroke-width:.93327475;stroke-miterlimit:4;stroke-dasharray:none"/><use height="100%" width="100%" transform="translate(-8.89 -26.942)" xlink:href="#a" style="stroke-width:.93327475;stroke-miterlimit:4;stroke-dasharray:none"/><use height="100%" width="100%" transform="translate(-10.688 -29.923)" xlink:href="#a" style="stroke-width:.93327475;stroke-miterlimit:4;stroke-dasharray:none"/><use height="100%" width="100%" transform="translate(-5.987 -31.204)" xlink:href="#a" style="stroke-width:.93327475;stroke-miterlimit:4;stroke-dasharray:none"/><use height="100%" width="100%" transform="translate(6.053 -31.196)" xlink:href="#a" style="stroke-width:.93327475;stroke-miterlimit:4;stroke-dasharray:none"/><use height="100%" width="100%" transform="translate(-2.775 -25.424)" xlink:href="#a" style="stroke-width:.93327475;stroke-miterlimit:4;stroke-dasharray:none"/><use height="100%" width="100%" transform="translate(4.275 -24.313)" xlink:href="#a" style="stroke-width:.93327475;stroke-miterlimit:4;stroke-dasharray:none"/></g><path id="b" d="M-3309.008 18942.557c-1.887.129-3.6-.94-5.61 1.33-1.69 2.279-.168 5.699-1.506 7.212-.67.757-2.693 2.542-4.94.574-2.353-2.059-.876-4.362.69-4.787 1.167-.316 2.63.538 2.708 1.948.076 1.416-1.785 2.018-2.358.162.573 1.856 2.434 1.254 2.358-.162 0-4.502.605-4.719 1.806-6.047.748-.828 3.87-2.871 6.852-.23z" style="display:inline;opacity:1;fill:#ead452;fill-opacity:1;fill-rule:evenodd;stroke:#000;stroke-width:.63195527;stroke-miterlimit:4;stroke-dasharray:none;stroke-opacity:1"/><use xlink:href="#b" transform="rotate(-86.533 -3327.782 18955.524)" width="100%" height="100%"/><use xlink:href="#b" transform="scale(1 -1) rotate(77.841 20140.89 7.685)" width="100%" height="100%"/></g><path style="opacity:1;fill:#f5fbf8;fill-opacity:1;fill-rule:evenodd;stroke:#000;stroke-width:1.40625;stroke-linecap:butt;stroke-linejoin:bevel;stroke-miterlimit:4;stroke-dasharray:none;stroke-dashoffset:0;stroke-opacity:1" d="M-1426.996 18853.25c15.379 0 27.063-18.091 42.442-18.091 15.379 0 27.063 18.091 42.442 18.091 15.38 0 27.064-18.091 42.444-18.091 15.378 0 27.063 18.091 42.442 18.091 15.379 0 27.063-18.091 42.442-18.091 15.38 0 27.064 18.091 42.444 18.091 15.378 0 27.062-18.091 42.441-18.091 15.38 0 27.065 18.091 42.444 18.091v46.696c-15.379 0-27.063-18.091-42.442-18.091-15.379 0-27.063 18.091-42.442 18.091-15.38 0-27.064-18.091-42.444-18.091-15.379 0-27.063 18.091-42.442 18.091-15.379 0-27.063-18.091-42.442-18.091-15.38 0-27.064 18.091-42.443 18.091-15.38 0-27.064-18.091-42.443-18.091-15.379 0-27.064 18.091-42.443 18.091z" transform="translate(403.154 -5284.06) scale(.28222)"/><path style="display:inline;opacity:1;fill:none;fill-opacity:1;fill-rule:evenodd;stroke:#000;stroke-width:2.99999976;stroke-linecap:butt;stroke-linejoin:miter;stroke-miterlimit:4;stroke-dasharray:none;stroke-opacity:1" d="M-1257.226 19133.151s169.77-69.926 169.77-247.637v-160.965h-339.541v160.965c0 177.711 169.77 247.637 169.77 247.637z" transform="translate(403.154 -5284.06) scale(.28222)"/><g style="stroke-width:1.79166782;stroke-miterlimit:4;stroke-dasharray:none"><path style="display:inline;fill:#f5fbf8;fill-opacity:1;stroke:#000;stroke-width:1.79166782;stroke-linecap:round;stroke-linejoin:round;stroke-miterlimit:4;stroke-dasharray:none;stroke-opacity:1" d="m-2453.09 19310.968-1.7 63.542c-1.147 48.626-19.72 90.428-73.662 102.796h175.296c-53.943-12.368-72.515-54.17-73.662-102.796l-1.75-63.542h-12.26z" transform="matrix(.17004 0 0 .1702 463.297 -3213.218)"/><path style="fill:#f5fbf8;fill-opacity:1;stroke:#000;stroke-width:1.79166782;stroke-linecap:round;stroke-linejoin:round;stroke-miterlimit:4;stroke-dasharray:none;stroke-opacity:1" d="M-2312.932 19189.571v16.191c0 49.563-63.57 108.269-127.473 108.269-63.904 0-127.473-58.706-127.473-108.269v-16.191z" transform="matrix(.17004 0 0 .1702 463.297 -3213.218)"/><g style="fill:#f5fbf8;fill-opacity:1;stroke:#000;stroke-width:1.00546908;stroke-miterlimit:4;stroke-dasharray:none;stroke-opacity:1"><path d="M706.29 516.526h95.358a3.868 3.868 0 0 1 3.876 3.876v3.312a3.868 3.868 0 0 1-3.876 3.877H706.29a3.868 3.868 0 0 1-3.877-3.877v-3.312a3.868 3.868 0 0 1 3.877-3.876z" style="fill:#f5fbf8;fill-opacity:1;stroke:#000;stroke-width:1.00546908;stroke-linecap:round;stroke-linejoin:round;stroke-miterlimit:4;stroke-dasharray:none;stroke-opacity:1" transform="matrix(.30368 0 0 .3026 -180.864 -54.889)"/></g><path style="fill:#f5fbf8;fill-opacity:1;stroke:#000;stroke-width:1.79166782;stroke-miterlimit:4;stroke-dasharray:none;stroke-opacity:1" d="M-2458.144 19311.723h35.478c7.932 0 14.317 6.356 14.317 14.253 0 7.896-6.385 14.252-14.317 14.252h-35.478c-7.932 0-14.317-6.356-14.317-14.252 0-7.897 6.385-14.253 14.317-14.253z" transform="matrix(.17004 0 0 .1702 463.297 -3213.218)"/><path style="display:inline;fill:#f5fbf8;fill-opacity:1;stroke:#000;stroke-width:1.79166782;stroke-miterlimit:4;stroke-dasharray:none;stroke-opacity:1" d="M-2451.062 19340.753h21.313c7.406 0 13.368 5.935 13.368 13.308 0 7.372-5.962 13.307-13.368 13.307h-21.313c-7.406 0-13.368-5.935-13.368-13.307 0-7.373 5.962-13.308 13.368-13.308z" transform="matrix(.17004 0 0 .1702 463.297 -3213.218)"/></g><path style="fill:#ead452;fill-opacity:1;stroke:#000;stroke-width:.93749994;stroke-linecap:butt;stroke-linejoin:miter;stroke-miterlimit:4;stroke-dasharray:none;stroke-opacity:1" d="M-1389.755 18801.424s-2.97-.04-4.16-1.205c-1.293-1.268-2.678-5.749-2.678-5.749s-3.274.89-4.78.344c-1.572-.571-3.824-3.583-3.824-3.583 1.504-.372 2.627-.752 4.083-2.724 0 0-2.898-.257-4.55-1.321-1.436-.927-3.782-3.997-3.782-3.997 1.34-.557 2.79-.488 3.845-2.681 0 0-2.839.04-4.125-.744-1.284-.786-3.323-3.81-3.323-3.81 1.56-.226 3.044-.711 4.048-2.822 0 0-2.876.163-4.094-.638-1.682-1.106-4.255-4.791-4.255-4.791 1.618-.205 3.227-.438 4.451-1.975l-.91-3.093c-1.098-3.734-3.398-2.417-4.926-3.446-1.502-1.011-2.343-3.767-2.425-5.312-.145-2.724.687-6.886 4.36-6.017-1.827-4.66.076-8.007 2.018-9.347 1.866-1.288 3.515-.936 4.782 4.163 0 0 1.704-2.307 2.627-2.649 1.285-.476 2.733.238 3.19 2.252.188.828.256 2.56-.06 3.594-.497 1.635-1.595 2.755-1.953 5.147-.406 2.708 1.088 7.433 1.088 7.433s7.059 9.363 10.306 14.491c1.728 2.729 4.865 8.634 4.865 8.634l.173-.169h6.997l.625 19.766-7.614.249z" transform="translate(404.236 -5284.06) scale(.28222)"/><path style="fill:#ead452;fill-opacity:1;stroke:#000;stroke-width:.9375;stroke-linecap:butt;stroke-linejoin:miter;stroke-miterlimit:4;stroke-dasharray:none;stroke-opacity:1" d="M-1349.445 18810.497c-1.233-.603-2.738-3.318-4.046-3.305-1.378.01-2.349 1.3-3.042 3.031-.33.825.188 3.914.704 4.507l2.373 2.731s-1.486 2.857-1.598 4.466c-.098 1.397.321 2.519.92 3.623.78 1.438.97 1.994 2.214 2.297.742.181 2.498-.362 2.498-.362s-.04 2.293.393 3.351c.787 1.917 2.121 3.607 3.646 3.338 1.191-.211 1.578-.513 2.207-1.997.5-1.177.4-4.185 1.21-5.425l3.296-5.04c1.423 1.442 1.385 3.591 1.208 5.808 0 0 2.116-2.238 2.745-3.841.656-1.67.915-5.614.915-5.614 1.34 2.023 1.782 3.831 1.495 6.248 0 0 2.154-2.252 2.847-3.841.78-1.789 1.452-5.657 1.452-5.657.98 1.598 1.188 3.87.814 6.648 0 0 2.406-2.699 3.05-4.875.508-1.72.813-4.727.813-4.727 2.924.355 4.812-1.775 4.94-3.981.1-1.711-1.056-4.043-3.41-4.721 0 0-.87-2.173-1.199-3.78-.226-1.105-.243-2.36 0-3.458.486-2.194 1.619-4.041 2.776-5.618 1.592-2.17 5.057-4.899 5.057-4.899l-1.014-8.498-11.798-3.026-13.04 5.382c2.376 1.826 7.7 8.07 7.265 10.436-.163.886-1.295 1.724-1.837 2.91-.398.873-.094 2.268.298 3.169.548 1.261 1.859 1.551 2.28 2.738.38 1.067.552 2.019.1 3.025-.894 1.986-3.898 2.82-5.355 3.89-2.654 1.95-7.15 6.202-7.15 6.202-1.398.306-2.738-.505-4.027-1.135z" transform="translate(404.236 -5284.06) scale(.28222)"/><path style="fill:#ead452;fill-opacity:1;stroke:#000;stroke-width:.93749994;stroke-linecap:butt;stroke-linejoin:miter;stroke-miterlimit:4;stroke-dasharray:none;stroke-opacity:1" d="M-1321.797 18783.752s-.225 7.067-1.988 8.876c-.76.779-1.822 1.102-2.65.554-.803-.53-1.364-1.97-1.657-3.328-.188-.869-.497-3.051-.497-3.051s-2.695-2.064-4.141-2.219c-2.13-.227-6.295 1.942-6.295 1.942.711-3.702 2.625-6.733 4.638-9.708l6.958-.832z" transform="translate(404.236 -5284.06) scale(.28222)"/><path style="fill:#ead452;fill-opacity:1;stroke:#000;stroke-width:.93749994;stroke-linecap:butt;stroke-linejoin:miter;stroke-miterlimit:4;stroke-dasharray:none;stroke-opacity:1" d="M-1303.005 18736.777c1.994-.367 6.088-1.728 7.462-3.976.64-1.048 2.436-3.976 2.436-3.976-.38 6.61-2.404 10.895-6.7 13.799-3.427 2.317-7.384 2.853-11.116 2.339-2.35-.324-6.7-2.339-6.7-2.339 2.386 4.283 1.174 7.306-1.827 9.356 0 0 .445-4.102-.457-4.678-1.944-1.242-4.136.376-6.2 2.277-1.525 1.404-3.834 2.059-5.39 2.031-2.59-.05-4.026-.1-6.449-1.508-1.461-.851-3.996-4.094-5.07-3.772-2.318.696-5.247 1.087-6.566 4.097-.458 1.046-.402 2.683 0 3.782.902 2.465 2.929 3.753 4.72 4.412 5.325 1.959 9.67 1.946 14.927.702 5.417-1.282 11.742-3.85 17.158-5.399 5.368-1.536 12.289-4.439 16.357-5.841 7.19-2.479 10.416-2.821 15.796-2.689 9.422.231 12.507 7.915 12.22 16.301-.294 8.616-5.972 12.517-10.834 14.934-8.547 4.249-20.283 1.829-27.659 1.539 0 0 2.473 3.18 3.595 4.634 1.313 1.703 1.97 5.265 3.594 6.134 2.227 1.192 5.633-1.171 7.987-1.38 3.292-.292 8.885.307 8.885.307.857-1.34 1.412-2.27 2.302-2.671.638-.288 1.643-.303 2.155 0 1.014.595 1.696 2.426 1.27 5.836 0 0 .703 1.511 1.775 1.859 1.135.369 2.46.04 3.107.357 1.067.517 2.795 2.146 2.795 2.146s-1.832.891-2.594 1.604c-.521.488-1.217 2.103-1.217 2.103s2.509.07 3.557.781c1.122.765 2.16 2.927 2.16 2.927s-1.511-.165-2.231.533c-.55.534-1.454 2.003-1.454 2.003s2.937-.366 3.938.976c.887 1.188 1.906 3.317 1.906 3.317s-1.585-.05-2.335.28c-.488.216-1.35 1.085-1.35 1.085s2.03 1.626 2.923 3.513c.712 1.507.889 4.877.889 4.877s-1.196-1.376-1.93-1.881c-.46-.316-1.5-.265-1.5-.265l.476 6.92c.116 1.702 1.67 3.544 1.947 4.861.35 1.66.262 2.284-.365 3.739-.803 1.863-2.461 2.243-3.895 1.869-.791-.206-1.903-1.74-1.903-1.74s-.81 2.297-1.355 3.001c-.913 1.179-1.354 1.505-2.546 1.435-.915-.05-1.682-.794-2.314-1.809-.73-1.169-1.234-4.668-1.234-4.668l-2.812.854c-.61.185-2.46-1.245-2.667-2.147-.433-1.89-.474-3.801.365-5.334.797-1.456 3.001-1.532 4.124-2.334 1.44-1.027 2.822-4.001 2.822-4.001s-4.697-5.55-6.729-9.002c-1.117-1.898-3.039-6.334-3.039-6.334s-5.99 2.771-8.248 3.334c-5.571 1.388-11.505 0-11.505 0-8.515 0-14.18-20.086-21.923-24.672-2.363-1.4-3.475-1.18-5.947-.334-8.971 3.075-18.55 20.538-27.438 24.139-3.648 1.478-11.287 2-11.287 2s-1.25 4.137-2.433 5.319c-1.287 1.284-4.516 1.368-4.516 1.368s-.826 4.948-1.772 6.827c-.988 1.964-3.705 3.867-3.705 3.867.401-2.256.64-3.984.073-6.836 0 0-1.35 3.948-2.664 5.817-1.143 1.627-3.933 3.638-3.933 3.638.224-2.105.864-4.103 0-6.486 0 0-1.148 3.988-2.146 5.462-.997 1.471-3.632 3.072-3.632 3.072.51-2.276.837-4.551 0-6.827 0 0-1.092 4.089-2.07 5.462-1.352 1.895-4.6 3.97-4.6 3.97.548-2.347 1.075-4.695.67-7.043h-2.21c-2.668 0-2.838 3.754-4.08 5.467-1.22 1.681-3.202 1.719-4.151 1.195-1.675-.924-3.164-4.174-1.13-8.951-3.518.628-5.35-3.049-5.342-6.321.011-3.143.693-5.917 4.24-5.582 0 0-.458-2.722-.28-4.154.25-1.994 1.272-3.724 2.655-3.53.568.08 1.623.7 2.106 1.567.763 1.373.974 3.371 2.243 4.861 1.438 1.687 4.856 1.55 4.856 1.55s6.644-6.001 11.027-8.422c2.332-1.288 8.954-3.235 8.954-3.235l.207-27.153c3.98.41 2.269.468 5.634.3 4.834-.241 17.534 3.03 17.534 3.03l9.042-1.033s15.083-3.798 22.258-4.985c3.615-.599 7.267-1.029 10.897-.713 5.468.477 10.163 2.741 15.303 3.205 4.32.391 7.272 1.127 11.592.713 6.169-.592 17.195.102 20.699-9.206.91-2.416.442-5.725-.915-7.585-1.79-2.455-3.063-3.38-5.452-2.536-1.26.445-2.86 1.922-3.018 3.739-.085.985.021 1.853.56 3.016.926 2 1.972 2.965 1.972 2.965s-3.11.238-4.328-1.259c-1.282-1.576-2-6.218-2-6.218-.604 1.278-1.047 2.677-.945 4.496.087 1.567 0 2.547 1.139 4.925 0 0-2.83-.303-4.186-2.691-.911-1.605-1.655-6.431-1.655-6.431-.804 1.218-1.294 3.19-1.328 4.644-.05 2.099.543 3.02.84 5.226 0 0-2.79-1.26-3.894-3.589-.856-1.807-1.313-6.555-1.313-6.555-3.21 1.229-9.337 2.966-16.01 5.167-4.7 1.55-11.88 3.933-16.953 4.913-8.713 1.682-15.057.811-20.413-2.68-2.787-1.817-4.043-3.565-4.762-7.691-.408-2.342.193-5.66 1.577-8.243 1.928-3.601 5.279-6.297 9.021-7.721 0 0 9.912-4.088 15.684-4.912 9.256-1.321 13.02.666 16.887 1.414 2.514.486 5.219-.311 6.01-1.763.666-1.221 1.768-2.537.283-5.482 0 0 1.882.06 3.13 3.606.51 1.449-.119 4.798-.119 4.798z" transform="translate(404.236 -5284.06) scale(.28222)"/><path style="fill:#f5fbf8;fill-opacity:1;stroke:#000;stroke-width:.93749994;stroke-linecap:butt;stroke-linejoin:miter;stroke-miterlimit:4;stroke-dasharray:none;stroke-opacity:1" d="M-1409.231 18736.155c1.337 2.777 1.489 4.051 1.184 7.295.634 1.103 1.24 1.369 1.765 1.102 1.057-.538 1.55-1.947 1.305-3.9-.784-.824-.911-3.304-4.254-4.497zm-7.992 1.47c-.552-.03-1.225.07-2.06.372 1.905 1.6 2.358 2.653 2.884 5.817.849.566 1.467.387 1.88-.222.828-1.222.928-2.845.221-4.453-.688-.155-1.27-1.414-2.925-1.514zm-2.37 12.568c-.884.454-2.085-1.009-4.812 2.441 2.129.126 2.802.766 4.067 3.276.913-.08 1.43-.672 1.654-1.512.448-1.69.135-3.237-.908-4.205zm3.118 52.868c-.865.555-2.125-.765-4.703 2.994 2.13-.122 2.828.44 4.194 2.796.908-.185 1.4-.837 1.588-1.701.378-1.737 0-3.245-1.08-4.089zm60.672 4.816c-.863.56-2.126-.751-4.697 3.021 2.13-.134 2.83.424 4.2 2.772.907-.189 1.398-.844 1.584-1.71.374-1.74-.011-3.245-1.087-4.083zm-65.137 5.587c-.663 1.082-2.131.703-3.612 5.863 1.927-1.522 2.703-1.471 4.514-.211a3.388 3.388 0 0 0 1.056-2.613c-.064-1.846-.767-2.979-1.958-3.039zm66.19 8.003c-.622 1.148-2.1.92-3.39 6.221 1.867-1.716 2.642-1.744 4.495-.671.76-.85 1.025-1.802.96-2.716-.13-1.835-.873-2.895-2.064-2.834zm-61.507 4.349c-.352-.03-.732.127-1.13.467-.27 1.482-1.668 2.334-1.484 8.049 1.252-2.885 1.948-3.464 3.897-3.818.471-1.311.467-2.362.176-3.141-.366-.98-.873-1.515-1.46-1.557zm131.746.612a1.76 1.76 0 0 0-.795.288c-.365 1.425-1.807 2.017-1.996 7.732 1.433-2.64 2.16-3.088 4.122-3.084.553-1.218.616-2.263.378-3.09-.36-1.25-.96-1.899-1.709-1.846zm-62.758 3.863c-.352.04-.723.256-1.097.665-.176 1.521-1.51 2.615-.966 8.265 1.063-3.091 1.718-3.79 3.635-4.486.385-1.388.313-2.432-.024-3.155-.426-.909-.961-1.351-1.547-1.289zm78.17.39c-.712-.09-1.341.531-1.776 1.839.268 1.483-.607 3.493 1.447 8.067.08-3.565.464-4.693 1.965-6.806-.045-1.529-.398-2.397-.9-2.772-.252-.189-.498-.298-.736-.328zm-8.432 1.66c-.455.06-.905.437-1.321 1.153.028 1.548-1.13 3.107.14 8.42.633-3.406 1.179-4.327 2.957-5.71.195-1.496-.01-2.49-.436-3.071-.428-.585-.886-.851-1.34-.792z" transform="translate(404.236 -5284.06) scale(.28222)"/><path style="fill:#222b2c;fill-opacity:1;stroke:#000;stroke-width:.9375;stroke-miterlimit:4;stroke-dasharray:none;stroke-opacity:1" d="M-1384.425 18763.883h19.407v15.269h-19.407z" transform="translate(403.154 -5284.06) scale(.28222)"/><path style="fill:#f5fbf8;fill-opacity:1;fill-rule:evenodd;stroke:#000;stroke-width:.9375;stroke-linecap:butt;stroke-linejoin:miter;stroke-miterlimit:4;stroke-dasharray:none;stroke-opacity:1" d="M-1379.41 18767.457c1.458 1.827 2.6 7.445 4.358 8.669 1.244-1.132 3.256-7.404 4.602-9.831" transform="translate(403.154 -5284.06) scale(.28222)"/><path style="fill:#f5fbf8;fill-opacity:1;fill-rule:evenodd;stroke:#000;stroke-width:.9375;stroke-linecap:round;stroke-linejoin:round;stroke-miterlimit:4;stroke-dasharray:none;stroke-opacity:1" d="M-1376.173 18778.054c-.923-1.347-1.717-5.936-1.81-6.033-.648-.679-1.422 4.977-1.896 6.636m-.818-13.789c.41 1.551.848 5.669 1.637 6.205.627.426.8-3.358 1.724-4.395m3.21 11.102c.82-1.167 1.431-5.279 1.616-5.414.507-.372 1.099 4.46 1.465 5.946m-1.163-11.29c.804 1.142-.036 4.999.69 4.568.811-.482 2.003-4.719 2.67-6.291" transform="translate(403.154 -5284.06) scale(.28222)"/><path style="fill:#ead452;fill-opacity:1;fill-rule:evenodd;stroke:#000;stroke-width:.9375;stroke-linecap:round;stroke-linejoin:round;stroke-miterlimit:4;stroke-dasharray:none;stroke-opacity:1" d="M-1384.172 18744.82c-9.593 6.228-1.101 15.381-10.162 19.433 1.59.202 3.05.676 5.08 0-2.542 2.287-3.733 9.936-8.594 3.162 1.19 5.679 4.208 7.3 9.649 4.027-6.246 6.137-5.118 17.779-15.595 16.189 7.472 4.656 12.355 2.263 17.243-.729-9.833 6.942-6.67 16.577-16.702 15.162 6.844 8.423 13.338 4.031 19.81-1.487.98-1.178 2.331-2.361 4.163-3.567-1.389 1.171-2.774 2.384-4.162 3.567-5.046 6.073-.041 11.662 2.054 15.676.423-8.074 8.394-9.807 12.783-14.541-5.884 13.875 3.27 16.185 9.46 10.865-10.885-.426-.437-4.22 1.757-14.811-.546 5.26-1.027 10.311 4.892 7.811-6.235.389 2.77-10.833 1.405-14.702-1.069-3.874-4.122-6.359-6.838-9.109 2.77 2.247 5.825 7.858 9.27 3.676-.73.913-5.862.385-3.135-7.513 1.567-5.269-3.395-7.148-6.135-10.352 1.874 1.824 3.4 1.311 5.433-.162-5.718.839-4.437-6.033-4.892-11.919.522.412 1.045.74 1.567.352-1.453-2.033-3.475-3.32-3.478-7.008-.983-1.775-.458-3.157-4.576-4.722-5.716-3.967-18.813-2.949-20.297.702zm2.108 19.757c.61-.15 1.7 1.867 4 2.433 2.629.646 3.626.89 6.297.351 2.672-.539 3.818-3.478 4.379-2.486.56.991-1.51 3.378-2.136 6.459-.624 3.081.92 4.615-.35 5.865-1.272 1.25-2.366-.822-4.758-.865-2.391-.04-3.389 2.033-4.81.676-1.423-1.358-.154-3.049-.865-6.108-.711-3.06-2.534-5.139-1.973-6.109.07-.121.129-.194.216-.216zm25.027 28.216a18.8 18.8 0 0 1-.324 4.865c.174-1.681.354-3.392.324-4.865z" transform="translate(403.154 -5284.06) scale(.28222)"/><path style="fill:none;stroke:#000;stroke-width:.9375;stroke-linecap:round;stroke-linejoin:round;stroke-miterlimit:4;stroke-dasharray:none;stroke-opacity:1" d="M-1385.156 18763.717c-.159 6.652 2.401 9.685 3.739 14.223.98 3.329 5.786 2.999 6.64 5.344 1.197-2.562 5.893-1.732 6.813-4.892.72-2.476 3.347-6.057 4.434-14.97m-22.75-9.581c3.605-1.678 3.82-2.397 9.24 1.768m5.532-.038c4.547-3.454 4.707-4.185 8.822-1.134" transform="translate(403.154 -5284.06) scale(.28222)"/><path style="fill:#ead452;fill-opacity:1;fill-rule:evenodd;stroke:#000;stroke-width:.9375;stroke-linecap:round;stroke-linejoin:round;stroke-miterlimit:4;stroke-dasharray:none;stroke-opacity:1" d="M-1381.574 18744.465c-.911-5.242-5.736-4.328-9.71-4.751 1.48 3.095 2.507 7.404 5.01 7.774m19.779-3.186c.911-5.242 5.736-4.329 9.71-4.751-1.48 3.094-2.507 7.404-5.01 7.774" transform="translate(403.154 -5284.06) scale(.28222)"/><path style="fill:none;stroke:#000;stroke-width:.9375;stroke-linecap:round;stroke-linejoin:round;stroke-miterlimit:4;stroke-dasharray:none;stroke-opacity:1" d="M-1376.988 18756.221c.725 2.563-2.513 3.37-2.519 6.102m7.265-5.908c-.433 3.05 2.966 3.281 3.003 5.618m-7.874.28c.38-.493 1.084.571 2.295.62 1.21.05 2.145-1.256 2.48-.803.335.455-1.685 2.946-2.497 2.945-.842 0-2.666-2.261-2.278-2.762z" transform="translate(403.154 -5284.06) scale(.28222)"/><path style="fill:#f5fbf8;fill-opacity:1;fill-rule:evenodd;stroke:#000;stroke-width:.9375;stroke-linecap:round;stroke-linejoin:round;stroke-miterlimit:4;stroke-dasharray:none;stroke-opacity:1" d="M-1371.484 18755.709c1.2.557 1.901.736 2.883.292 1.604-.668 1.997-1.691 2.778-1.719-.144-.66-.353-1.282-1.463-1.388-2.468.825-2.258 1.675-4.198 2.815zm-5.556.073c-1.198.556-1.9.735-2.882.292-1.604-.668-1.997-1.691-2.778-1.719.144-.66.353-1.282 1.463-1.388 2.468.825 2.258 1.675 4.198 2.815z" transform="translate(403.154 -5284.06) scale(.28222)"/><path style="fill:none;fill-rule:evenodd;stroke:#000;stroke-width:.57615411;stroke-linecap:butt;stroke-linejoin:round;stroke-miterlimit:4;stroke-dasharray:none;stroke-opacity:1" d="M-1367.664 18753.967c-.646-.03-1.064.5-1.307.923.645.593 1.22-.289 1.307-.923zm-13.06.172c.647-.03 1.064.5 1.307.923-.645.593-1.22-.289-1.307-.923z" transform="translate(403.154 -5284.06) scale(.28222)"/></svg>